<svg width="42" height="42" viewBox="0 0 42 42" fill="none" xmlns="http://www.w3.org/2000/svg">
<g clip-path="url(#clip0_254_508)">
<path d="M40.1572 33.635C38.8727 31.0625 34.4855 29.4508 28.4147 27.2178C27.2597 26.796 26.5317 26.621 26.2063 25.6812C26.022 25.2306 25.9504 24.7418 25.9977 24.2573C26.0449 23.7727 26.2096 23.307 26.4775 22.9005C28.8838 20.3 30.065 16.4045 30.065 11.375C30.065 4.725 25.515 1.75 21 1.75C16.485 1.75 11.935 4.725 11.935 11.375C11.935 16.4045 13.1163 20.3 15.5225 22.9005C15.7904 23.307 15.9551 23.7727 16.0023 24.2573C16.0496 24.7418 15.978 25.2306 15.7937 25.6812C15.4682 26.621 14.7437 26.796 13.5852 27.2178C7.5145 29.4508 3.12725 31.0677 1.84275 33.635C0.708993 35.9744 0.0810937 38.5266 0 41.125C0 41.3571 0.0921872 41.5796 0.256282 41.7437C0.420376 41.9078 0.642936 42 0.875 42H41.125C41.3571 42 41.5796 41.9078 41.7437 41.7437C41.9078 41.5796 42 41.3571 42 41.125C41.9189 38.5266 41.291 35.9744 40.1572 33.635Z" fill="#828282"/>
</g>
<defs>
<clipPath id="clip0_254_508">
<rect width="42" height="42" fill="white"/>
</clipPath>
</defs>
</svg>
