<svg width="24" height="24" viewBox="0 0 24 24" fill="none" xmlns="http://www.w3.org/2000/svg">
<g clip-path="url(#clip0_254_1712)">
<path d="M7.5 12.004H23.25" stroke="#BDBDBD" stroke-width="1.5" stroke-linecap="round" stroke-linejoin="round"/>
<path d="M19.5 15.754L23.25 12.004L19.5 8.254" stroke="#BDBDBD" stroke-width="1.5" stroke-linecap="round" stroke-linejoin="round"/>
<path d="M15.7515 16.5V21C15.7686 21.3796 15.6348 21.7505 15.3791 22.0316C15.1235 22.3127 14.767 22.4811 14.3875 22.5H2.11451C1.73521 22.4808 1.37893 22.3123 1.12353 22.0312C0.868125 21.7501 0.734375 21.3794 0.751509 21V3C0.734108 2.62054 0.867767 2.24964 1.12322 1.96851C1.37868 1.68737 1.73512 1.51891 2.11451 1.5H14.3875C14.767 1.51891 15.1235 1.68734 15.3791 1.96845C15.6348 2.24955 15.7686 2.62044 15.7515 3V7.5" stroke="#BDBDBD" stroke-width="1.5" stroke-linecap="round" stroke-linejoin="round"/>
</g>
<defs>
<clipPath id="clip0_254_1712">
<rect width="24" height="24" fill="white"/>
</clipPath>
</defs>
</svg>
