<svg width="24" height="24" viewBox="0 0 24 24" fill="none" xmlns="http://www.w3.org/2000/svg">
<g clip-path="url(#clip0_254_1723)">
<path d="M8.49359 11.265L7.43359 15.508L11.6756 14.447L18.0396 8.083L14.8576 4.901L8.49359 11.265Z" stroke="#828282" stroke-width="1.5" stroke-linecap="round" stroke-linejoin="round"/>
<path d="M21.751 4.37097L22.811 5.43097C22.9504 5.57027 23.061 5.73567 23.1364 5.91772C23.2119 6.09978 23.2507 6.29491 23.2507 6.49197C23.2507 6.68904 23.2119 6.88417 23.1364 7.06622C23.061 7.24827 22.9504 7.41367 22.811 7.55297L19.5 10.863" stroke="#828282" stroke-width="1.5" stroke-linecap="round" stroke-linejoin="round"/>
<path d="M18.0375 8.083L21.7505 4.371C22.0317 4.0897 22.1896 3.70824 22.1896 3.3105C22.1896 2.91275 22.0317 2.53129 21.7505 2.25L20.6895 1.189C20.4082 0.90779 20.0267 0.749817 19.629 0.749817C19.2312 0.749817 18.8498 0.90779 18.5685 1.189L14.8555 4.9" stroke="#828282" stroke-width="1.5" stroke-linecap="round" stroke-linejoin="round"/>
<path d="M18.75 14.25V21.75C18.75 22.1478 18.592 22.5294 18.3107 22.8107C18.0294 23.092 17.6478 23.25 17.25 23.25H2.25C1.85218 23.25 1.47064 23.092 1.18934 22.8107C0.908035 22.5294 0.75 22.1478 0.75 21.75V6.75C0.75 6.35218 0.908035 5.97064 1.18934 5.68934C1.47064 5.40804 1.85218 5.25 2.25 5.25H9.75" stroke="#828282" stroke-width="1.5" stroke-linecap="round" stroke-linejoin="round"/>
</g>
<defs>
<clipPath id="clip0_254_1723">
<rect width="24" height="24" fill="white"/>
</clipPath>
</defs>
</svg>
